<?xml version="1.0" encoding="UTF-8" standalone="no"?><svg width="1593" height="223" viewBox="0 0 1593 223" fill="none" xmlns="http://www.w3.org/2000/svg">
<g clip-path="url(#clip0_1292_65998)">
<path d="M297.951 108.594L206.185 200.361L159.023 153.156L111.84 200.361L22.737 111.237L20.0944 108.573C7.79782 96.2978 1.66016 80.1651 1.66016 64.0538C1.66016 47.9424 7.79781 31.8098 20.1158 19.4918C44.709 -5.10144 84.6038 -5.10144 109.197 19.4918L111.861 22.1557L114.525 19.4918C122.197 11.8197 131.361 6.53454 141.079 3.6362C141.079 3.61489 141.121 3.6362 141.121 3.6362C146.961 1.9313 153.013 1.05753 159.044 1.05753C163.093 1.05753 167.121 1.44113 171.106 2.20834C172.79 2.52801 174.495 2.93293 176.2 3.40178C183.318 5.40504 190.137 8.66567 196.318 13.205C198.875 15.0804 201.305 17.1689 203.564 19.4705L204.501 20.4082L206.206 22.1344L208.891 19.4705C221.124 7.19519 237.278 1.05753 253.389 1.05753C269.501 1.05753 285.633 7.19519 297.951 19.4918C322.566 44.1064 322.566 84.0012 297.951 108.594Z" fill="#352666"/>
<path d="M116.658 111.345L159.025 153.712L111.352 201.386L21.3113 111.345L18.6474 108.681C6.20159 96.2568 0 79.9537 0 63.6718C0 47.39 6.20159 31.0868 18.6474 18.641C43.4964 -6.22929 83.8174 -6.22929 108.666 18.641L111.33 21.3262L113.227 19.4295C101.271 31.7475 95.3255 47.6883 95.3255 63.6718C95.3255 79.6553 101.527 96.2568 113.973 108.681L116.637 111.345H116.658Z" fill="#8040F2"/>
<path d="M204.057 108.684L159.026 153.715L116.659 111.348L113.995 108.684C101.549 96.2593 95.3477 79.9562 95.3477 63.6743C95.3477 47.3925 101.294 31.75 113.249 19.432L114.038 18.6435C121.795 10.8862 131.044 5.55835 140.869 2.61739H140.911C146.836 0.891169 152.931 -0.00390625 159.026 -0.00390625C163.118 -0.00390625 167.188 0.401009 171.216 1.16822C172.942 1.5092 174.647 1.8928 176.352 2.40427C183.534 4.42885 190.439 7.7321 196.683 12.314C199.262 14.2107 201.712 16.3206 204.014 18.6435L204.952 19.5812C228.948 44.4941 228.65 84.1332 204.057 108.705V108.684Z" fill="#352666"/>
<path d="M299.401 108.684L206.676 201.388L159.023 153.715L204.054 108.684C228.647 84.1119 228.925 44.4941 204.949 19.5599L206.697 21.3287L209.382 18.6435C221.807 6.219 238.088 -0.00390625 254.37 -0.00390625C270.652 -0.00390625 286.955 6.19769 299.401 18.6222C324.271 43.4925 324.271 83.8135 299.401 108.662V108.684Z" fill="#FE9D60"/>
<path d="M351.508 92.0819C351.508 41.297 390.678 0.1875 445.853 0.1875C470.404 0.1875 492.482 8.45629 508.487 22.8201L484.767 48.756C472.62 38.2708 460.217 35.2233 448.069 35.2233C415.527 35.2233 391.786 60.6051 391.786 92.0606C391.786 123.516 414.973 149.729 446.705 149.729C463.264 149.729 478.438 143.378 489.477 131.231L513.474 158.275C496.361 174.834 473.195 184.765 445.874 184.765C390.699 184.765 351.508 143.655 351.508 92.0606" fill="#352666"/>
<path d="M516.904 112.781C516.904 72.7794 549.468 41.0469 590.577 41.0469C631.687 41.0469 664.528 72.7794 664.528 112.781C664.528 152.782 631.964 184.515 590.577 184.515C549.191 184.515 516.904 152.782 516.904 112.781ZM626.721 112.781C626.721 91.2563 611.271 75.2515 590.577 75.2515C569.884 75.2515 554.434 91.2563 554.434 112.781C554.434 134.305 569.884 150.31 590.577 150.31C611.271 150.31 626.721 134.582 626.721 112.781Z" fill="#352666"/>
<path d="M674.033 112.781C674.033 73.0565 704.935 41.0469 745.49 41.0469C783.019 41.0469 812.535 73.0565 812.535 112.227C812.535 118.854 811.704 125.461 811.704 125.461H711.541C715.953 144.492 731.68 153.613 749.902 153.613C763.136 153.613 776.946 149.756 787.154 142.851L800.942 169.341C785.491 179.549 767.547 184.515 749.624 184.515C709.346 184.515 674.033 158.302 674.033 112.781ZM777.777 100.91C775.028 83.5203 761.218 71.9483 744.382 71.9483C727.546 71.9483 714.589 83.5416 710.987 100.91H777.755H777.777Z" fill="#352666"/>
<path d="M824.535 126.289V43.793H861.51V121.324C861.51 140.632 869.779 149.476 886.892 149.476C906.2 149.476 915.598 133.194 915.598 114.44V43.793H952.574V181.741H917.815V162.433C909.525 175.966 890.771 184.512 874.766 184.512C836.683 184.512 824.556 162.156 824.556 126.289" fill="#352666"/>
<path d="M1046.24 42.0859C1024.26 46.1138 1013.54 60.6055 1010.22 70.2595V43.7695H973.799V181.739H1010.77V128.759C1010.77 96.174 1026.27 81.5119 1057.81 81.2988L1046.21 42.0859H1046.24Z" fill="#352666"/>
<path d="M1050.09 2.96094H1089.26L1118.23 108.367C1121.25 119.406 1124.58 133.194 1124.85 134.58C1125.13 133.194 1127.88 119.96 1130.93 108.367L1157.69 2.96094H1197.7L1224.19 108.367C1226.94 119.683 1229.71 133.194 1229.98 134.58C1230.54 133.194 1233.56 119.683 1236.89 108.367L1266.68 2.96094H1305.04L1251.78 182.019H1210.95L1183.63 80.4915C1180.33 68.067 1178.11 51.2524 1177.56 49.313C1177 51.2311 1174.81 68.067 1171.48 80.4915L1144.16 182.019H1103.05L1050.09 2.96094Z" fill="#352666"/>
<path d="M1292.59 112.781C1292.59 73.0565 1316.87 41.0469 1354.95 41.0469C1370.96 41.0469 1388.07 47.3976 1398 60.632V43.796H1434.14V181.744H1398V165.185C1388.35 178.42 1370.96 184.493 1354.95 184.493C1316.87 184.493 1292.59 152.484 1292.59 112.759M1397.17 112.759C1397.17 91.235 1383.36 75.2302 1364.33 75.2302C1345.3 75.2302 1330.12 91.235 1330.12 112.759C1330.12 134.284 1344.47 150.289 1364.33 150.289C1384.19 150.289 1397.17 134.838 1397.17 112.759Z" fill="#352666"/>
<path d="M1472.91 188.646C1490.02 188.646 1496.35 182.849 1501.32 172.087L1504.34 166.013L1446.68 43.793H1484.2L1512.08 108.366C1516.21 118.02 1521.18 131.83 1521.18 131.83C1521.18 131.83 1526.98 115.548 1530 107.556L1555.11 43.8143H1592.08L1530.83 185.641C1515.94 219.569 1490 222.339 1472.89 222.339V188.667L1472.91 188.646Z" fill="#352666"/>
<path d="M351.508 92.0819C351.508 41.297 390.678 0.1875 445.853 0.1875C470.404 0.1875 492.482 8.45629 508.487 22.8201L484.767 48.756C472.62 38.2708 460.217 35.2233 448.069 35.2233C415.527 35.2233 391.786 60.6051 391.786 92.0606C391.786 123.516 414.973 149.729 446.705 149.729C463.264 149.729 478.438 143.378 489.477 131.231L513.474 158.275C496.361 174.834 473.195 184.765 445.874 184.765C390.699 184.765 351.508 143.655 351.508 92.0606" fill="#352666"/>
<path d="M516.904 112.781C516.904 72.7794 549.468 41.0469 590.577 41.0469C631.687 41.0469 664.528 72.7794 664.528 112.781C664.528 152.782 631.964 184.515 590.577 184.515C549.191 184.515 516.904 152.782 516.904 112.781ZM626.721 112.781C626.721 91.2563 611.271 75.2515 590.577 75.2515C569.884 75.2515 554.434 91.2563 554.434 112.781C554.434 134.305 569.884 150.31 590.577 150.31C611.271 150.31 626.721 134.582 626.721 112.781Z" fill="#352666"/>
<path d="M674.033 112.781C674.033 73.0565 704.935 41.0469 745.49 41.0469C783.019 41.0469 812.535 73.0565 812.535 112.227C812.535 118.854 811.704 125.461 811.704 125.461H711.541C715.953 144.492 731.68 153.613 749.902 153.613C763.136 153.613 776.946 149.756 787.154 142.851L800.942 169.341C785.491 179.549 767.547 184.515 749.624 184.515C709.346 184.515 674.033 158.302 674.033 112.781ZM777.777 100.91C775.028 83.5203 761.218 71.9483 744.382 71.9483C727.546 71.9483 714.589 83.5416 710.987 100.91H777.755H777.777Z" fill="#352666"/>
<path d="M824.535 126.289V43.793H861.51V121.324C861.51 140.632 869.779 149.476 886.892 149.476C906.2 149.476 915.598 133.194 915.598 114.44V43.793H952.574V181.741H917.815V162.433C909.525 175.966 890.771 184.512 874.766 184.512C836.683 184.512 824.556 162.156 824.556 126.289" fill="#352666"/>
<path d="M1046.24 42.0859C1024.26 46.1138 1013.54 60.6055 1010.22 70.2595V43.7695H973.799V181.739H1010.77V128.759C1010.77 96.174 1026.27 81.5119 1057.81 81.2988L1046.21 42.0859H1046.24Z" fill="#352666"/>
<path d="M1050.09 2.96094H1089.26L1118.23 108.367C1121.25 119.406 1124.58 133.194 1124.85 134.58C1125.13 133.194 1127.88 119.96 1130.93 108.367L1157.69 2.96094H1197.7L1224.19 108.367C1226.94 119.683 1229.71 133.194 1229.98 134.58C1230.54 133.194 1233.56 119.683 1236.89 108.367L1266.68 2.96094H1305.04L1251.78 182.019H1210.95L1183.63 80.4915C1180.33 68.067 1178.11 51.2524 1177.56 49.313C1177 51.2311 1174.81 68.067 1171.48 80.4915L1144.16 182.019H1103.05L1050.09 2.96094Z" fill="#352666"/>
<path d="M1292.59 112.781C1292.59 73.0565 1316.87 41.0469 1354.95 41.0469C1370.96 41.0469 1388.07 47.3976 1398 60.632V43.796H1434.14V181.744H1398V165.185C1388.35 178.42 1370.96 184.493 1354.95 184.493C1316.87 184.493 1292.59 152.484 1292.59 112.759M1397.17 112.759C1397.17 91.235 1383.36 75.2302 1364.33 75.2302C1345.3 75.2302 1330.12 91.235 1330.12 112.759C1330.12 134.284 1344.47 150.289 1364.33 150.289C1384.19 150.289 1397.17 134.838 1397.17 112.759Z" fill="#352666"/>
<path d="M1472.91 188.646C1490.02 188.646 1496.35 182.849 1501.32 172.087L1504.34 166.013L1446.68 43.793H1484.2L1512.08 108.366C1516.21 118.02 1521.18 131.83 1521.18 131.83C1521.18 131.83 1526.98 115.548 1530 107.556L1555.11 43.8143H1592.08L1530.83 185.641C1515.94 219.569 1490 222.339 1472.89 222.339V188.667L1472.91 188.646Z" fill="#352666"/>
</g>
<defs>
<clipPath id="clip0_1292_65998">
<rect width="1592.1" height="222.32" fill="white"/>
</clipPath>
</defs>
</svg>
